<?xml version="1.0" encoding="UTF-8"?>
<svg id="Calque_1" xmlns="http://www.w3.org/2000/svg" version="1.1" viewBox="0 0 93.75 89.25">
  <!-- Generator: Adobe Illustrator 29.8.4, SVG Export Plug-In . SVG Version: 2.1.1 Build 6)  -->
  <defs>
    <style>
      .st0 {
        stroke: #fff;
        stroke-miterlimit: 10;
        stroke-width: 3px;
      }

      .st0, .st1 {
        fill: #c58b59;
      }
    </style>
  </defs>
  <rect class="st1" width="93.75" height="89.25"/>
  <path class="st0" d="M39.1,81.27c.9,1.8-.53,3.89-2.54,3.74-18.27-1.4-28.48-22.19-24.21-38.32C16.95,29.32,43.98,9.03,55.49,7.7c8.19-.94,29.75,1.5,33.63,25.66.38,2.37-2.16,4.17-4.22,2.94-6.3-3.79-13.32-5.09-25.5-3.06-14.94,2.49-21.19,15.41-24.51,26.37-2.64,8.7,1.06,15.37,4.2,21.65Z"/>
  <path class="st0" d="M32.37,60.94l-18.52.6c-2.06.07-3.85-1.48-4.02-3.53C6.91,22.58,38.21,2.77,60.49,5.13c2.48.26,4.36,2.35,4.36,4.84v18.52c0,2.6-1.68,4.93-4.17,5.66-9.82,2.89-18.21,10.7-22.82,22.9-.86,2.29-3.04,3.81-5.48,3.89Z"/>
  <path class="st0" d="M41.72,50.2l-28.09-12.44c-2.79-1.24-4.11-4.46-2.98-7.29,4.49-11.23,14.59-22.16,26.32-24.48,1.89-.37,3.78.65,4.54,2.42,3.99,9.21,10.05,25.27,12.36,31.43.57,1.52.16,3.22-1.03,4.32l-4.66,4.76c-1.69,1.72-4.25,2.23-6.47,1.3Z"/>
</svg>